<?xml version="1.0" standalone="no"?>
<!DOCTYPE svg PUBLIC "-//W3C//DTD SVG 20010904//EN"
 "http://www.w3.org/TR/2001/REC-SVG-20010904/DTD/svg10.dtd">
<svg version="1.0" xmlns="http://www.w3.org/2000/svg"
 width="512.000000pt" height="545.000000pt" viewBox="0 0 512.000000 545.000000"
 preserveAspectRatio="xMidYMid meet">
<metadata>
Created by potrace 1.15, written by Peter Selinger 2001-2017
</metadata>
<g transform="translate(0.000000,545.000000) scale(0.100000,-0.100000)"
fill="#000000" stroke="none">
<path d="M0 2725 l0 -2725 2560 0 2560 0 0 2725 0 2725 -2560 0 -2560 0 0
-2725z m1442 2315 l54 -61 45 10 c73 17 208 13 293 -9 78 -20 196 -67 196 -79
0 -3 -10 -11 -22 -16 -13 -6 -23 -19 -23 -29 0 -20 18 -36 145 -126 70 -50
182 -157 219 -208 l23 -33 -41 7 c-42 7 -71 -6 -71 -32 0 -7 22 -38 49 -69 63
-72 137 -220 156 -310 8 -38 15 -118 15 -177 l0 -107 35 -26 c49 -38 132 -61
265 -74 301 -31 387 -49 518 -112 61 -30 101 -58 148 -105 56 -55 69 -64 102
-64 68 -1 189 -28 252 -56 115 -51 191 -123 293 -274 63 -93 138 -174 196
-212 l45 -28 -43 0 c-25 0 -57 9 -80 22 -33 19 -41 20 -55 9 -57 -47 53 -169
229 -252 79 -37 286 -109 315 -109 30 0 -7 -18 -70 -33 -221 -54 -484 -42
-556 24 -11 10 -24 19 -29 19 -19 0 -79 56 -106 99 -44 68 -58 130 -69 286
-10 151 -25 216 -60 265 -38 54 -123 76 -179 47 -24 -11 -25 -17 -26 -112 -1
-76 -7 -115 -23 -159 -48 -130 -140 -245 -292 -365 -73 -58 -91 -78 -106 -118
-25 -63 -24 -214 0 -293 10 -30 23 -75 30 -100 25 -86 -10 -148 -97 -170 -123
-33 -280 -142 -352 -246 -58 -83 -67 -90 -126 -104 -66 -15 -74 -22 -98 -74
-30 -67 -48 -78 -110 -66 -54 10 -91 26 -91 38 0 4 9 21 20 37 26 39 25 69 -1
87 -22 14 -21 14 12 50 38 40 84 56 194 67 67 7 72 10 120 57 29 28 90 70 142
98 82 43 95 54 114 93 18 37 21 56 16 106 -8 85 -42 163 -146 336 -107 177
-144 249 -165 320 -20 68 -21 173 -1 237 16 53 13 79 -10 88 -27 10 -43 -5
-60 -52 -24 -71 -30 -176 -12 -251 l15 -63 -57 7 c-130 16 -307 83 -456 172
-70 43 -215 156 -264 207 l-35 36 35 12 c95 33 269 147 269 177 0 20 -19 41
-37 41 -8 0 -39 -18 -69 -41 -259 -191 -571 -218 -858 -73 -59 30 -75 34 -112
28 -90 -13 -173 -90 -214 -200 -24 -66 -50 -208 -50 -276 0 -44 3 -51 30 -66
35 -20 60 -83 60 -153 0 -36 -6 -55 -26 -78 -53 -63 -66 -41 -83 139 -6 68
-16 127 -22 131 -14 8 -28 73 -29 128 0 35 13 72 60 165 37 76 67 153 80 206
22 97 36 113 111 129 40 9 65 8 127 -6 104 -23 313 -24 362 -2 l36 16 11 129
c15 160 35 227 107 350 153 261 162 522 22 629 -48 37 -68 32 -121 -27 -63
-70 -128 -115 -192 -134 -48 -14 -53 -18 -63 -55 -14 -51 -48 -74 -96 -64 -94
17 -112 105 -44 215 22 36 40 70 40 76 0 13 72 197 101 254 12 25 37 68 56 97
31 46 52 122 53 191 0 6 8 12 18 12 23 0 42 19 42 42 0 30 16 21 72 -42z
m-305 -1930 c3 0 -9 -16 -26 -35 -62 -71 -68 -107 -58 -314 6 -117 12 -131 51
-131 44 0 56 -27 56 -126 0 -51 -4 -95 -9 -98 -17 -11 -59 53 -70 104 -14 63
-39 114 -85 169 -42 50 -47 99 -17 159 22 45 29 73 40 160 5 37 16 84 24 105
l16 38 37 -16 c20 -8 39 -15 41 -15z m811 -2038 l3 -62 69 0 70 0 0 66 c0 62
1 65 23 62 22 -3 22 -6 25 -155 l3 -153 -26 0 c-24 0 -25 2 -25 70 l0 70 -70
0 -70 0 0 -70 c0 -68 -1 -70 -25 -70 l-25 0 0 148 c0 82 3 152 7 156 4 4 14 5
23 4 11 -2 16 -19 18 -66z m614 11 c2 -22 9 -29 31 -31 15 -2 27 -9 27 -17 0
-8 -12 -15 -27 -17 -27 -3 -28 -6 -31 -66 -3 -68 7 -92 40 -92 31 0 18 -34
-14 -38 -49 -6 -68 26 -68 118 0 73 -2 80 -20 80 -11 0 -20 6 -20 14 0 7 9 16
20 19 14 3 20 14 20 31 0 38 37 36 42 -1z m-160 -50 c28 -25 41 -86 28 -133
-14 -52 -49 -75 -113 -75 -66 0 -97 34 -97 105 0 63 15 95 54 115 37 18 101
12 128 -12z m413 13 c27 -12 36 -23 45 -55 6 -23 8 -46 5 -51 -3 -6 -40 -10
-81 -10 -67 0 -74 -2 -74 -20 0 -11 10 -30 21 -41 18 -18 29 -21 75 -16 32 3
54 2 54 -4 0 -17 -54 -31 -100 -26 -61 7 -90 41 -90 107 0 63 17 100 55 116
39 17 49 17 90 0z m-785 -671 l0 -165 -25 0 -25 0 0 165 0 165 25 0 25 0 0
-165z m-886 135 c16 -6 26 -17 26 -30 0 -17 -3 -19 -19 -10 -27 14 -82 12
-103 -4 -30 -22 -49 -81 -41 -128 12 -77 83 -120 144 -88 16 9 19 7 19 -9 0
-30 -67 -48 -121 -32 -52 16 -75 40 -89 93 -37 136 66 253 184 208z m1490 0
c70 -16 91 -61 51 -108 l-26 -31 23 -12 c32 -17 38 -28 38 -72 0 -54 -40 -77
-137 -77 l-73 0 0 148 c0 82 3 152 7 155 9 10 71 8 117 -3z m-1270 -84 c38
-16 46 -40 46 -147 0 -61 -2 -69 -19 -69 -11 0 -21 5 -23 12 -3 8 -11 7 -28
-5 -59 -41 -136 6 -116 71 8 25 47 42 96 42 38 0 40 2 40 30 0 41 -35 58 -87
42 -20 -6 -39 -10 -41 -7 -9 9 11 25 41 34 45 13 53 13 91 -3z m490 0 c38 -16
46 -40 46 -147 0 -61 -2 -69 -19 -69 -11 0 -21 5 -23 12 -3 8 -11 7 -28 -5
-59 -41 -136 6 -116 71 8 25 47 42 96 42 38 0 40 2 40 30 0 47 -45 61 -112 35
-33 -13 -19 16 15 30 41 18 60 18 101 1z m405 3 c38 -13 61 -54 61 -108 0 -55
-17 -87 -55 -106 -43 -20 -80 -19 -116 2 -75 44 -60 188 23 212 45 13 50 13
87 0z m845 -3 c38 -16 46 -40 46 -147 0 -61 -2 -69 -19 -69 -11 0 -21 5 -23
12 -3 8 -11 7 -28 -5 -59 -41 -136 6 -116 71 8 25 47 42 96 42 38 0 40 2 40
30 0 41 -32 56 -85 41 -22 -6 -41 -9 -43 -6 -9 9 11 25 41 34 45 13 53 13 91
-3z m299 -18 c13 -16 17 -39 17 -109 0 -82 -1 -89 -20 -89 -18 0 -20 7 -20 68
0 105 -31 143 -85 108 -23 -15 -25 -23 -25 -96 0 -79 0 -80 -25 -80 l-25 0 0
110 c0 103 1 110 20 110 11 0 20 -7 20 -15 0 -19 3 -19 42 5 38 24 74 19 101
-12z m221 22 c42 -16 33 -39 -12 -33 -53 7 -72 -14 -72 -77 0 -65 19 -84 77
-77 50 5 54 -10 8 -32 -73 -35 -140 26 -132 122 7 80 64 123 131 97z m245 -1
c39 -14 61 -54 61 -113 0 -84 -72 -133 -155 -106 -90 30 -84 192 7 219 45 13
50 13 87 0z m-2338 -86 c14 -48 30 -88 35 -90 5 -2 21 36 35 85 21 71 30 88
48 90 11 2 21 0 21 -5 0 -5 -15 -54 -33 -108 l-34 -100 -38 0 -38 0 -27 80
c-43 130 -44 135 -18 135 20 0 26 -11 49 -87z"/>
<path d="M2303 1019 c-49 -18 -59 -104 -18 -144 13 -14 31 -25 40 -25 30 0 65
46 65 87 0 64 -39 100 -87 82z"/>
<path d="M2200 402 c-35 -11 -50 -35 -50 -82 0 -58 18 -83 59 -83 47 0 66 24
65 83 -1 65 -29 96 -74 82z"/>
<path d="M3810 402 c-35 -11 -50 -35 -50 -82 0 -58 18 -83 59 -83 41 0 61 21
67 69 8 62 -31 111 -76 96z"/>
</g>
</svg>
